<?xml version="1.0" encoding="utf-8"?>
<!-- Generator: Adobe Illustrator 21.1.0, SVG Export Plug-In . SVG Version: 6.00 Build 0)  -->
<svg version="1.1" id="Capa_1" xmlns="http://www.w3.org/2000/svg" xmlns:xlink="http://www.w3.org/1999/xlink" x="0px" y="0px"
	 viewBox="0 0 720 576" style="enable-background:new 0 0 720 576;" xml:space="preserve">
<style type="text/css">
	.st0{fill:#1D1D1B;}
	.st1{fill:#E9637F;}
</style>
<g>
	<path class="st0" d="M428.1,304.8c7.2,8,11.8,17.5,16.3,27.1c3.6,7.6,7.3,15.2,13,21.5c9.4,10.2,21.3,14.6,34.9,14.3
		c5-0.1,8.6,3.1,7.4,7.6c-3.5,13.5-8,26.6-16.8,37.8c-0.8,1-1.7,2-2.6,2.9c-8.4,8.4-16.4,9.5-26.9,3.7c-6.7-3.7-12.3-8.9-18.1-13.8
		c-7.2-6.1-14.7-11.8-20.5-19.3c-7.3-9.4-11.9-20-15.5-31.2c-5.6-17.3-13.1-33.7-22.8-49.1c-1-1.7-2-2.3-4.1-2.1
		c-4.7,0.6-8.9-0.6-12.6-3.6c-4.9-4.2-10-4.2-15.4-0.8c-2.8,1.7-5.6,3.5-9,3.8c-1.4,0.1-1.6,1.4-2.2,2.3
		c-10.7,16.8-18.6,34.9-24.7,53.8c-5.5,17.2-15.4,31.2-29.8,42.2c-4.5,3.5-8.7,7.4-13.1,11c-3.4,2.8-7,5.4-10.9,7.4
		c-10.4,5.2-18.5,3.6-26.4-4.9c-7.6-8.2-11.8-18.2-15.4-28.5c-1.2-3.6-2.3-7.2-3.3-10.9c-1.2-4.5,1.8-8.3,6.5-8.2
		c20.3,0.5,34.8-8.6,44.2-26.3c1.8-3.4,3.5-6.9,5.2-10.5c4.3-9.3,8.9-18.5,16.2-26.6c-3.1,0-5.8,0-8.6,0
		c-11.2,0.1-22.4,0.3-33.6-1.4c-3.3-0.5-6.5-1.3-9.6-2.5c-8.2-3-12.2-8.9-12.9-17.4c-0.7-8.4,0.4-16.6,2.4-24.7
		c2.7-11.2,5.7-22.3,10.3-32.8c1.7-4,4-7.6,7.3-10.5c1.9-1.6,3.9-2.8,6.4-3c1.7-0.5,3.3-0.1,5-0.2c5.3-0.1,10.4,0.8,15.3,2.5
		c14.4,4.9,28.8,9.9,42.6,16.4c5.7,2.7,11.2,5.8,16.3,9.6c1.8,1.3,3,1.7,5,0.1c4.6-3.6,10-3.8,15.5-2.9c4.3,0.8,8.3,2.3,12.1,4.3
		c2,1,3.9,1.2,6.1,0.6c6.7-1.8,13.4-2.5,20.1,0c1.5,0.5,2.7,0.2,4-0.7c12.9-9.7,27.7-15.5,42.7-21c7.8-2.9,15.5-5.9,23.6-7.9
		c3.1-0.8,6.3-0.7,9.4-1.3c0.2,0,0.4,0,0.6,0c1.8,0.8,3.7-0.1,5.5,0.5c4.5,1,7.5,4,10,7.6c3.3,4.8,5.4,10.2,7.1,15.8
		c4,12.7,8.1,25.3,8.9,38.7c0.3,4.1,0.2,8.2-0.6,12.2c-1.2,6.6-5,10.9-11.1,13.5c-6.5,2.8-13.5,3.8-20.5,4.1
		c-10.4,0.5-20.8,0.7-31.2,0.1C429.2,304,428.2,303.2,428.1,304.8z"/>
	<path class="st1" d="M264.2,291.8c-7.1,0.1-14.2,0.2-21.2-1.4c-1.2-0.3-2.3-0.6-3.5-1c-7-2.4-9.6-5.9-9.8-13.3
		c-0.2-6.4,1-12.5,2.6-18.7c2.2-8.1,5.1-16,8-23.9c0.9-2.4,2.1-4.8,3.7-6.8c1.4-1.8,3.2-2.4,5.3-1.8c20,6,40.2,11.5,58.6,21.8
		c3.9,2.2,7.5,4.7,10.8,7.5c0.8,0.7,1.8,1.3,1.5,2.7c-1.4,7.2-1.2,14.5-1,21.8c0.1,2-0.6,3.1-2.3,4c-8.5,4.3-17.7,6.2-27,7.5
		C281.5,291.5,272.9,291.8,264.2,291.8z"/>
	<path class="st1" d="M444.5,291.7c-16.6-0.1-30.4-1.2-43.8-5.6c-0.8-0.2-1.5-0.6-2.3-0.8c-2.3-0.6-3-1.6-2.4-4.2
		c2.2-9,1.6-17.9-2.5-26.3c-0.9-1.9,0.1-2.5,1.2-3.3c8.3-6,17.7-10.1,27.1-14c11.9-4.9,24.2-8.1,36.4-11.9c4.3-1.4,6.6-0.2,9.2,4
		c2.9,4.8,4.5,10.3,6.3,15.5c3.5,9.9,6.2,20,6,30.7c-0.2,9-3.1,12.5-12,13.8C459.3,291,450.7,292,444.5,291.7z"/>
	<path class="st1" d="M224.5,380.2c22.7-2.8,38.1-15.6,48.3-35.6c4.1-8,7.5-16.4,12.3-24c4.4-7.1,10-12.9,16.9-17.6
		c2.7-1.8,5.5-3.2,8.6-4.1c3-0.9,5.8-2.2,8.7-3.1c1-0.3,2-2,3.4-0.4c1.3,1.6,0.2,2.7-0.6,4c-3.5,5.4-6.7,10.9-9.7,16.6
		c-6.2,11.4-10.8,23.5-14.1,35.9c-5,18.3-15.3,32.6-31,43.1c-4.8,3.2-9.3,6.9-13.9,10.4c-6.5,4.9-12.5,4.3-17.9-1.9
		C232.7,400.2,225.3,384.6,224.5,380.2z"/>
	<path class="st1" d="M463.4,407.3c-2.7,0-5.2-0.7-7.4-2.2c-9.3-6.6-18.7-13.1-27-20.9c-8.2-7.7-13.1-17.3-16.5-27.8
		c-3.9-12.1-7.4-24.3-13.2-35.7c-3.6-7-7.4-13.9-11.7-20.6c-0.4-0.7-1.5-1.5-0.3-2.2c1.1-0.7,1.4-2.8,3.5-2.1
		c11.2,3.5,21.1,9,28.6,18.3c6,7.4,9.9,15.9,13.9,24.5c4.5,9.6,9.6,18.7,17.4,26c9.1,8.6,19.8,13.8,32.2,15.4
		c1.5,0.2,2.2,0.5,1.6,2.1c-2.4,6.5-5,12.9-9.4,18.4C472.1,404.2,468.6,407.2,463.4,407.3z"/>
	<path class="st1" d="M331.6,271.2c0.4-5.7,1.2-11.4,3-16.8c1.6-4.6,3.2-5.4,8-3.9c3.6,1.1,7,2.9,10.4,4.7c5,2.6,9.7,2.8,14.9,0.2
		c5.6-2.8,10.8-0.7,13.5,5c3.3,6.9,3.9,14,1.7,21.3c-2.8,9-10.1,11.9-18.4,7.3c-1.9-1.1-3.7-2.4-5.6-3.5c-4.5-2.7-8.9-2.8-13.2,0.3
		c-1.5,1.1-2.9,2.1-4.5,3c-3.5,1.9-6.2,1.1-7.8-2.5C331.2,281.4,331.4,276.3,331.6,271.2z"/>
</g>
</svg>
